<svg width="42" height="42" viewBox="0 0 42 42" fill="none" xmlns="http://www.w3.org/2000/svg">
<path d="M41.8628 12.3965C41.8392 10.633 41.5086 8.88705 40.8855 7.23672C40.3453 5.84468 39.5201 4.58046 38.4627 3.52483C37.4053 2.4692 36.139 1.64538 34.7446 1.106C33.1128 0.494456 31.3888 0.163784 29.6462 0.128063C27.4025 0.0279412 26.6912 0 20.9957 0C15.3002 0 14.5702 1.56133e-07 12.3429 0.128063C10.601 0.164047 8.87791 0.494715 7.24683 1.106C5.85225 1.645 4.58572 2.46869 3.52829 3.52437C2.47085 4.58005 1.64579 5.84447 1.10589 7.23672C0.4921 8.8646 0.161595 10.5852 0.128655 12.3243C0.0283667 14.5666 -0.00195312 15.2768 -0.00195312 20.9627C-0.00195312 26.6487 -0.00195314 27.3752 0.128655 29.6012C0.16364 31.3428 0.492494 33.0612 1.10589 34.6934C1.6467 36.0853 2.47237 37.3492 3.53016 38.4044C4.58795 39.4596 5.85459 40.283 7.24916 40.8218C8.87578 41.4579 10.5992 41.8123 12.3452 41.8696C14.5912 41.9697 15.3026 42 20.998 42C26.6935 42 27.4235 42 29.6509 41.8696C31.3935 41.8354 33.1175 41.5055 34.7493 40.894C36.1433 40.354 37.4093 39.53 38.4666 38.4744C39.5239 37.4189 40.3493 36.155 40.8902 34.7633C41.5036 33.1334 41.8325 31.415 41.8674 29.671C41.9677 27.4311 41.998 26.7209 41.998 21.0326C41.9934 15.3466 41.9934 14.6248 41.8628 12.3965ZM20.9817 31.7154C15.025 31.7154 10.1995 26.8979 10.1995 20.9511C10.1995 15.0043 15.025 10.1868 20.9817 10.1868C23.8413 10.1868 26.5838 11.3209 28.6059 13.3396C30.628 15.3583 31.7639 18.0962 31.7639 20.9511C31.7639 23.806 30.628 26.5439 28.6059 28.5626C26.5838 30.5813 23.8413 31.7154 20.9817 31.7154ZM32.1931 12.2987C31.8628 12.299 31.5357 12.2343 31.2306 12.1083C30.9254 11.9822 30.6481 11.7974 30.4146 11.5642C30.181 11.3311 29.9959 11.0542 29.8696 10.7496C29.7434 10.4449 29.6785 10.1184 29.6789 9.78867C29.6789 9.4592 29.7439 9.13296 29.8702 8.82857C29.9964 8.52418 30.1816 8.2476 30.4149 8.01463C30.6483 7.78166 30.9253 7.59686 31.2302 7.47078C31.5351 7.34469 31.8619 7.2798 32.1919 7.2798C32.5219 7.2798 32.8487 7.34469 33.1536 7.47078C33.4585 7.59686 33.7355 7.78166 33.9689 8.01463C34.2023 8.2476 34.3874 8.52418 34.5137 8.82857C34.64 9.13296 34.705 9.4592 34.705 9.78867C34.705 11.1764 33.5808 12.2987 32.1931 12.2987Z" fill="#E9BD8C"/>
<path d="M20.9814 27.9435C24.8496 27.9435 27.9853 24.8129 27.9853 20.9512C27.9853 17.0895 24.8496 13.959 20.9814 13.959C17.1133 13.959 13.9775 17.0895 13.9775 20.9512C13.9775 24.8129 17.1133 27.9435 20.9814 27.9435Z" fill="#E9BD8C"/>
</svg>
