<svg width="42" height="42" viewBox="0 0 42 42" fill="none" xmlns="http://www.w3.org/2000/svg">
<path d="M21.0134 4.2268e-06C16.1169 -0.00310104 11.3733 1.70488 7.60278 4.82862C3.83221 7.95237 1.27172 12.2955 0.364028 17.107C-0.543665 21.9186 0.258505 26.8961 2.63184 31.1789C5.00517 35.4616 8.80046 38.7805 13.3615 40.5615C13.1777 38.8999 13.0097 36.3458 13.4324 34.5319C13.8156 32.8913 15.8946 24.0923 15.8946 24.0923C15.8946 24.0923 15.2672 22.8349 15.2672 20.9764C15.2672 18.0548 16.9604 15.876 19.0682 15.876C20.8585 15.876 21.7247 17.22 21.7247 18.8344C21.7247 20.6351 20.5776 23.3284 19.9844 25.8248C19.4909 27.9143 21.0344 29.6205 23.095 29.6205C26.8277 29.6205 29.6969 25.683 29.6969 20.0025C29.6969 14.9756 26.0822 11.4608 20.9241 11.4608C14.9496 11.4608 11.4426 15.9416 11.4426 20.5721C11.4426 22.3781 12.1382 24.3128 13.0045 25.3654C13.0791 25.4447 13.1318 25.5421 13.1576 25.6479C13.1834 25.7537 13.1813 25.8644 13.1515 25.9691C12.9914 26.6306 12.637 28.0586 12.5687 28.35C12.4769 28.7333 12.2642 28.8146 11.8652 28.6309C9.24023 27.4103 7.60223 23.5751 7.60223 20.4934C7.60223 13.8705 12.4165 7.78838 21.478 7.78838C28.7624 7.78838 34.4245 12.978 34.4245 19.9159C34.4245 27.153 29.8596 32.9779 23.5281 32.9779C21.3992 32.9779 19.399 31.8728 18.7139 30.5655L17.4066 35.5583C16.9315 37.3826 15.6505 39.669 14.7947 41.0629C17.6822 41.9557 20.7283 42.2147 23.725 41.8222C26.7217 41.4297 29.5984 40.3951 32.1585 38.7889C34.7187 37.1826 36.902 35.0428 38.5592 32.5154C40.2165 29.988 41.3087 27.1326 41.7613 24.1444C42.2138 21.1562 42.016 18.1055 41.1814 15.2007C40.3468 12.296 38.895 9.60557 36.9252 7.31335C34.9555 5.02112 32.5141 3.18108 29.768 1.91892C27.0219 0.656753 24.0357 0.00221105 21.0134 4.2268e-06Z" fill="#E9BD8C"/>
</svg>
