<svg width="42" height="42" viewBox="0 0 42 42" fill="none" xmlns="http://www.w3.org/2000/svg">
<path d="M21.0043 6.47219e-05C15.4356 0.00564454 10.0964 2.21935 6.1583 6.15548C2.2202 10.0916 0.00475864 15.4287 -0.00194119 20.9958C-0.00615931 24.9597 1.10742 28.8223 3.20805 32.1663L3.70579 32.959L1.58407 40.7054L9.53524 38.6223L10.2987 39.0777C13.5362 40.9933 17.2296 42.0027 20.9917 42H20.9959C26.5628 41.9922 31.8996 39.7782 35.8364 35.8433C39.7733 31.9085 41.989 26.5738 41.9979 21.0085C42.0076 18.2499 41.4697 15.5168 40.4155 12.9675C39.3613 10.4181 37.8116 8.10318 35.8563 6.15668C33.9111 4.19941 31.5968 2.64743 29.0474 1.59062C26.498 0.533814 23.7642 -0.00680849 21.0043 6.47219e-05ZM33.355 30.0157C32.8277 31.4916 30.3053 32.8325 29.0947 33.0139C27.7675 33.2426 26.4052 33.1574 25.117 32.7651C23.8948 32.3867 22.6937 31.9433 21.5189 31.4368C15.1833 28.7042 11.0495 22.3326 10.729 21.9067C10.4168 21.485 8.15591 18.4826 8.15591 15.379C8.15591 12.2711 9.78411 10.7446 10.362 10.1121C10.5742 9.87242 10.8335 9.67906 11.1238 9.54411C11.4141 9.40916 11.7292 9.33551 12.0492 9.32776C12.4711 9.32776 12.8886 9.33198 13.2598 9.34884C13.6479 9.36571 14.1667 9.20125 14.6771 10.4326C15.2044 11.6976 16.4698 14.8012 16.6259 15.1175C16.782 15.4296 16.8874 15.8006 16.6807 16.2223C16.4698 16.6482 16.3686 16.9055 16.048 17.2765C15.7359 17.6476 15.3858 18.0988 15.1032 18.3856C14.7868 18.6976 14.4578 19.0392 14.8248 19.6717C15.196 20.3 16.4614 22.3705 18.3342 24.0446C20.747 26.1952 22.7844 26.8572 23.4129 27.1777C24.0456 27.4898 24.4126 27.4434 24.7838 27.0175C25.1507 26.5916 26.3613 25.1747 26.7831 24.5464C27.205 23.9139 27.6226 24.0193 28.2047 24.2259C28.7825 24.441 31.8871 25.9633 32.5156 26.2795C33.1399 26.5916 33.5659 26.7518 33.7262 27.0175C33.878 27.2789 33.878 28.5398 33.355 30.0157Z" fill="#E9BD8C"/>
</svg>
